# xmcd
#
# Track frame offsets:
#	150
#	17918
#	35873
#	55129
#	68921
#	86387
#	100768
#	116461
#	131272
#	148723
#	166669
#	182097
#	195968
#	213437
#	230099
#	243052
#
# Disc length: 3427 seconds
# Revision: 2
# Processed by: cddbd v1.5.2PL0 Copyright (c) Steve Scherf et al.
# Submitted via: dBpowerAMP V12.0
#
DISCID=d20d6110
DTITLE=Keith Urban - Fuse
DYEAR=2013
DGENRE=Country
TTITLE0=Somewhere In My Car
TTITLE1=Even The Stars Fall 4 U
TTITLE2=Cop Car
TTITLE3=Shame
TTITLE4=Good Thing
TTITLE5=We Were Us
TTITLE6=Love's Poster Child
TTITLE7=She's My 11
TTITLE8=Come Back To Me
TTITLE9=Red Camaro
TTITLE10=Little Bit Of Everything
TTITLE11=Raise 'Em Up
TTITLE12=Heart Like Mine
TTITLE13=Black Leather Jacket (Bonus Track)
TTITLE14=Gonna B Good (Bonus Track)
TTITLE15=Lucky Charm (Bonus Track)
EXTD=
EXTT0=
EXTT1=
EXTT2=
EXTT3=
EXTT4=
EXTT5=
EXTT6=
EXTT7=
EXTT8=
EXTT9=
EXTT10=
EXTT11=
EXTT12=
EXTT13=
EXTT14=
EXTT15=
PLAYORDER=
